<?xml version="1.0" encoding="UTF-8" standalone="no"?>
<!DOCTYPE svg PUBLIC "-//W3C//DTD SVG 1.0//EN" "http://www.w3.org/TR/2001/REC-SVG-20010904/DTD/svg10.dtd">
<!-- Created with Inkscape (http://www.inkscape.org/) -->
<svg
   xmlns:svg="http://www.w3.org/2000/svg"
   xmlns="http://www.w3.org/2000/svg"
   version="1.0"
   width="146"
   height="73"
   id="svg3314">
  <defs
     id="defs3317" />
  <g
     id="g3330">
    <path
       d="M 31.50339,57.81548 C 23.999917,57.565218 14.961313,52.974278 11.006354,44.406497 C 6.3947161,34.416127 8.0250121,21.791476 16.055739,14.279672 C 21.429465,9.253182 26.950437,7.034355 35.44181,7.02612 L 40.856332,7.020543 L 40.856331,21.758593 L 37.544722,21.825689 C 19.585644,22.189555 19.792749,43.928656 37.689814,43.557306 L 40.923427,43.490211 L 40.923427,57.825689 C 40.923427,57.825689 32.200817,58.062519 31.50339,57.81548 z"
       id="path2468"
       style="fill:#019966;fill-opacity:1" />
    <path
       d="M 46.226437,24.73535 C 47.709014,0.12784173 84.934586,1.3855517 84.974216,25.137924 L 85.028986,57.962415 L 69.065036,58.017999 C 69.065036,58.017999 69.049486,42.982324 69.038496,43.018843 C 69.074946,43.033036 64.070326,42.975544 64.052076,42.965693 C 64.028356,42.935301 64.054996,30.050721 64.067916,30.027406 C 64.072856,30.036848 69.038006,30.009858 69.023096,30.001719 C 69.012376,30.001719 69.127566,26.031227 69.075796,23.680157 C 68.981106,19.37975 61.970746,19.638349 61.975826,24.028969 L 62.015136,57.977997 L 46.075796,57.977997 L 46.226437,24.73535 z"
       id="path3328"
       style="fill:#019966;fill-opacity:1" />
    <path
       d="M 118.0468,54.787158 C 118.0468,54.787158 118.0088,54.795041 113.58126,46.609246 C 112.84944,45.25794 108.37769,37.156519 108.37769,37.156519 L 108.34679,57.851372 L 92.676394,57.784277 C 92.676394,57.784277 92.641189,15.921998 92.637027,15.811829 C 92.629724,5.2984577 105.29861,3.5345367 109.3973,11.386356 L 118.51188,28.821041 L 118.61216,7.1942047 L 134.41445,7.1942047 C 134.41445,7.1942047 134.39179,52.143398 134.37489,52.128107 C 132.84372,60.253419 121.45442,60.815106 118.0468,54.787158 z"
       id="path3326"
       style="fill:#019966;fill-opacity:1" />
  </g>
</svg>
